<svg width="30" height="30" viewBox="0 0 30 30" fill="none" xmlns="http://www.w3.org/2000/svg">
<path fill-rule="evenodd" clip-rule="evenodd" d="M15.937 0.3125C15.6055 0.3125 15.2876 0.444196 15.0531 0.678617C14.8187 0.913037 14.687 1.23098 14.687 1.5625V3.4375C14.687 3.76902 14.8187 4.08696 15.0531 4.32138C15.2876 4.5558 15.6055 4.6875 15.937 4.6875C16.2685 4.6875 16.5865 4.5558 16.8209 4.32138C17.0553 4.08696 17.187 3.76902 17.187 3.4375V1.5625C17.187 1.23098 17.0553 0.913037 16.8209 0.678617C16.5865 0.444196 16.2685 0.3125 15.937 0.3125ZM5.31202 13.4375C4.9805 13.4375 4.66255 13.3058 4.42813 13.0714C4.19371 12.837 4.06202 12.519 4.06202 12.1875C4.06202 11.856 4.19371 11.538 4.42813 11.3036C4.66255 11.0692 4.9805 10.9375 5.31202 10.9375H7.18702C7.51854 10.9375 7.83648 11.0692 8.0709 11.3036C8.30532 11.538 8.43702 11.856 8.43702 12.1875C8.43702 12.519 8.30532 12.837 8.0709 13.0714C7.83648 13.3058 7.51854 13.4375 7.18702 13.4375H5.31202ZM26.562 13.4375C26.8935 13.4375 27.2115 13.3058 27.4459 13.0714C27.6803 12.837 27.812 12.519 27.812 12.1875C27.812 11.856 27.6803 11.538 27.4459 11.3036C27.2115 11.0692 26.8935 10.9375 26.562 10.9375H24.687C24.3555 10.9375 24.0376 11.0692 23.8031 11.3036C23.5687 11.538 23.437 11.856 23.437 12.1875C23.437 12.519 23.5687 12.837 23.8031 13.0714C24.0376 13.3058 24.3555 13.4375 24.687 13.4375H26.562ZM7.53952 5.55938C7.30513 5.32491 7.17349 5.00693 7.17355 4.6754C7.1736 4.34387 7.30536 4.02595 7.53983 3.79156C7.7743 3.55718 8.09227 3.42553 8.4238 3.42559C8.75533 3.42565 9.07326 3.55741 9.30764 3.79187L10.6333 5.11688C10.7494 5.23293 10.8415 5.37073 10.9044 5.52239C10.9673 5.67406 10.9997 5.83662 10.9998 6.00081C10.9998 6.16499 10.9675 6.32758 10.9048 6.47929C10.842 6.631 10.7499 6.76886 10.6339 6.885C10.5178 7.00114 10.38 7.09328 10.2284 7.15616C10.0767 7.21905 9.91414 7.25145 9.74996 7.2515C9.58577 7.25156 9.42318 7.21928 9.27147 7.1565C9.11976 7.09373 8.9819 7.00168 8.86577 6.88562L7.53952 5.55938ZM24.3333 3.79187C24.5676 4.02628 24.6992 4.34417 24.6992 4.67562C24.6992 5.00708 24.5676 5.32497 24.3333 5.55938L23.007 6.885C22.8917 7.00439 22.7538 7.09962 22.6013 7.16513C22.4488 7.23064 22.2847 7.26512 22.1188 7.26656C21.9528 7.26801 21.7882 7.23638 21.6346 7.17353C21.481 7.11068 21.3414 7.01786 21.224 6.90049C21.1067 6.78313 21.0138 6.64356 20.951 6.48994C20.8881 6.33632 20.8565 6.17172 20.858 6.00575C20.8594 5.83977 20.8939 5.67575 20.9594 5.52324C21.0249 5.37074 21.1201 5.23281 21.2395 5.1175L22.5651 3.79187C22.6812 3.67575 22.819 3.58363 22.9707 3.52078C23.1224 3.45793 23.285 3.42558 23.4492 3.42558C23.6134 3.42558 23.776 3.45793 23.9277 3.52078C24.0794 3.58363 24.2172 3.67575 24.3333 3.79187ZM15.6551 6.275C15.8386 6.10727 16.0813 6.0193 16.3296 6.03044C16.578 6.04157 16.8118 6.1509 16.9795 6.33438L16.9814 6.33625L16.9833 6.33875L16.9895 6.345L17.0083 6.36625L17.0708 6.43938C17.1249 6.50188 17.2016 6.595 17.3008 6.71875C17.5001 6.96875 17.7914 7.34875 18.1745 7.89C18.9401 8.97125 20.0758 10.6969 21.5783 13.3C23.0814 15.9025 24.0076 17.7481 24.5614 18.9531C24.7666 19.3948 24.9592 19.8423 25.1389 20.295C25.1947 20.437 25.2476 20.5802 25.2976 20.7244L25.3064 20.7512L25.3095 20.76L25.3108 20.7644V20.7656C25.3828 21.0004 25.36 21.254 25.247 21.472C25.1341 21.69 24.9401 21.8551 24.7068 21.9316C24.4735 22.0082 24.2195 21.9901 23.9993 21.8813C23.7792 21.7726 23.6105 21.5818 23.5295 21.35C22.7514 21.6112 21.9608 21.8688 21.1658 22.1206C20.917 21.5148 20.6551 20.9144 20.3801 20.32C19.6101 18.6603 18.7662 17.036 17.8508 15.4519C16.937 13.8671 15.9527 12.3241 14.9008 10.8275C14.5237 10.2928 14.1351 9.76646 13.7351 9.24875C14.3508 8.68625 14.9689 8.13 15.5845 7.58687C15.422 7.40257 15.3384 7.16184 15.3516 6.9165C15.3648 6.67115 15.4738 6.44079 15.6551 6.275ZM19.2864 22.4813C19.3147 22.5475 19.3424 22.6137 19.3695 22.68C18.0945 23.0706 16.8258 23.445 15.5995 23.7963L15.7726 24.4412C16.0554 25.4966 15.9074 26.621 15.3612 27.5672C14.8149 28.5133 13.9151 29.2038 12.8598 29.4866C11.8045 29.7694 10.6801 29.6213 9.73391 29.0751C8.78773 28.5288 8.0973 27.6291 7.81452 26.5738L7.64827 25.9538C7.03577 26.11 6.51077 26.2431 6.09202 26.3475C5.06139 26.605 3.93889 26.2575 3.27764 25.3588C3.04014 25.035 2.77452 24.6525 2.56077 24.2812C2.34817 23.9055 2.15622 23.5185 1.98577 23.1219C1.53827 22.1 1.79827 20.9538 2.53702 20.19C4.16827 18.5025 8.09452 14.4925 12.352 10.525L12.4814 10.6938C12.6908 10.97 12.9951 11.38 13.3683 11.9088C14.3876 13.3591 15.3415 14.8543 16.227 16.39C17.1141 17.9247 17.932 19.4984 18.6783 21.1063C18.9501 21.6938 19.1533 22.1625 19.287 22.4813H19.2864ZM10.0676 25.3225L10.2295 25.9262C10.2845 26.1316 10.3794 26.3242 10.5088 26.4929C10.6382 26.6616 10.7996 26.8032 10.9837 26.9096C11.1678 27.0159 11.3711 27.085 11.5819 27.1128C11.7927 27.1406 12.0069 27.1266 12.2123 27.0716C12.4177 27.0166 12.6103 26.9217 12.779 26.7923C12.9477 26.6628 13.0893 26.5015 13.1956 26.3174C13.302 26.1332 13.371 25.93 13.3988 25.7192C13.4266 25.5084 13.4126 25.2941 13.3576 25.0887L13.1933 24.475C12.0764 24.7844 11.0233 25.0687 10.0676 25.3225Z" fill="#6E6CDF"/>
</svg>
