<svg width="14" height="16" viewBox="0 0 14 16" fill="none" xmlns="http://www.w3.org/2000/svg">
<path d="M1.55556 16C1.12778 16 0.761704 15.8435 0.457333 15.5304C0.152963 15.2173 0.000518518 14.8405 0 14.4V3.2C0 2.76 0.152444 2.38347 0.457333 2.0704C0.762222 1.75733 1.1283 1.60053 1.55556 1.6H4.82222C4.99074 1.12 5.27281 0.733333 5.66844 0.44C6.06407 0.146667 6.50793 0 7 0C7.49207 0 7.93618 0.146667 8.33233 0.44C8.72848 0.733333 9.01029 1.12 9.17778 1.6H12.4444C12.8722 1.6 13.2386 1.7568 13.5434 2.0704C13.8483 2.384 14.0005 2.76053 14 3.2V14.4C14 14.84 13.8478 15.2168 13.5434 15.5304C13.2391 15.844 12.8727 16.0005 12.4444 16H1.55556ZM3.88889 12.8H7.77778C7.99815 12.8 8.183 12.7232 8.33233 12.5696C8.48167 12.416 8.55607 12.2261 8.55555 12C8.55504 11.7739 8.48037 11.584 8.33155 11.4304C8.18274 11.2768 7.99815 11.2 7.77778 11.2H3.88889C3.66852 11.2 3.48393 11.2768 3.33511 11.4304C3.1863 11.584 3.11163 11.7739 3.11111 12C3.11059 12.2261 3.18526 12.4163 3.33511 12.5704C3.48496 12.7245 3.66955 12.8011 3.88889 12.8ZM3.88889 9.6H10.1111C10.3315 9.6 10.5163 9.5232 10.6657 9.3696C10.815 9.216 10.8894 9.02613 10.8889 8.8C10.8884 8.57387 10.8137 8.384 10.6649 8.2304C10.5161 8.0768 10.3315 8 10.1111 8H3.88889C3.66852 8 3.48393 8.0768 3.33511 8.2304C3.1863 8.384 3.11163 8.57387 3.11111 8.8C3.11059 9.02613 3.18526 9.21627 3.33511 9.3704C3.48496 9.52453 3.66955 9.60107 3.88889 9.6ZM3.88889 6.4H10.1111C10.3315 6.4 10.5163 6.3232 10.6657 6.1696C10.815 6.016 10.8894 5.82613 10.8889 5.6C10.8884 5.37387 10.8137 5.184 10.6649 5.0304C10.5161 4.8768 10.3315 4.8 10.1111 4.8H3.88889C3.66852 4.8 3.48393 4.8768 3.33511 5.0304C3.1863 5.184 3.11163 5.37387 3.11111 5.6C3.11059 5.82613 3.18526 6.01627 3.33511 6.1704C3.48496 6.32453 3.66955 6.40107 3.88889 6.4ZM7.41844 2.4304C7.52837 2.3168 7.58333 2.17333 7.58333 2C7.58333 1.82667 7.52811 1.68347 7.41767 1.5704C7.30722 1.45733 7.168 1.40053 7 1.4C6.832 1.39947 6.69278 1.45627 6.58233 1.5704C6.47189 1.68453 6.41667 1.82773 6.41667 2C6.41667 2.17227 6.47189 2.31573 6.58233 2.4304C6.69278 2.54507 6.832 2.6016 7 2.6C7.168 2.5984 7.30748 2.5424 7.41844 2.4304Z" fill="white"/>
</svg>
