<svg width="20" height="20" viewBox="0 0 20 20" fill="none" xmlns="http://www.w3.org/2000/svg">
<path d="M0.366774 0.736455L0.538167 0.539259C0.836317 0.241075 1.23159 0.0597755 1.65211 0.0283263C2.07263 -0.00312301 2.49047 0.117366 2.82967 0.367885L3.02689 0.539259L10 7.50922L16.9731 0.536911C17.1356 0.368826 17.33 0.234787 17.5449 0.142614C17.7598 0.0504406 17.9908 0.00197994 18.2246 5.94134e-05C18.4585 -0.00186111 18.6903 0.0427968 18.9067 0.131428C19.123 0.220058 19.3196 0.350887 19.4848 0.51628C19.6501 0.681672 19.7807 0.878316 19.8692 1.09474C19.9576 1.31116 20.0021 1.54303 19.9999 1.77681C19.9978 2.01059 19.9491 2.2416 19.8567 2.45637C19.7643 2.67113 19.6301 2.86535 19.4618 3.02769L12.4911 10L19.4642 16.9723C19.762 17.2707 19.9429 17.6661 19.974 18.0866C20.005 18.507 19.8841 18.9247 19.6332 19.2635L19.4618 19.4607C19.1637 19.7589 18.7684 19.9402 18.3479 19.9717C17.9274 20.0031 17.5095 19.8826 17.1703 19.6321L16.9731 19.4607L10 12.4908L3.02689 19.4631C2.86437 19.6312 2.67 19.7652 2.45513 19.8574C2.24025 19.9496 2.00916 19.998 1.77535 19.9999C1.54154 20.0019 1.30969 19.9572 1.09333 19.8686C0.876965 19.7799 0.680421 19.6491 0.515165 19.4837C0.349909 19.3183 0.219251 19.1217 0.130814 18.9053C0.042377 18.6888 -0.00206737 18.457 7.38443e-05 18.2232C0.00221506 17.9894 0.0508991 17.7584 0.143285 17.5436C0.235672 17.3289 0.36991 17.1346 0.538167 16.9723L7.50893 10L0.535819 3.02769C0.237952 2.72928 0.0570662 2.33391 0.0260447 1.91344C-0.00497679 1.49298 0.115926 1.07534 0.366774 0.736455Z" fill="#CF2D2D"/>
</svg>
