<svg width="22" height="19" viewBox="0 0 22 19" fill="none" xmlns="http://www.w3.org/2000/svg">
<path d="M1 1H21M1 9H6.5M1 17H6.5" stroke="#E7BE65" stroke-width="2" stroke-linecap="round"/>
<path d="M14.75 14.5C15.8772 14.5 16.9582 14.0522 17.7552 13.2552C18.5522 12.4582 19 11.3772 19 10.25C19 9.12283 18.5522 8.04183 17.7552 7.2448C16.9582 6.44777 15.8772 6 14.75 6C13.6228 6 12.5418 6.44777 11.7448 7.2448C10.9478 8.04183 10.5 9.12283 10.5 10.25C10.5 11.3772 10.9478 12.4582 11.7448 13.2552C12.5418 14.0522 13.6228 14.5 14.75 14.5Z" stroke="#E7BE65" stroke-width="2"/>
<path d="M17.5 13.5L21 17.025" stroke="#E7BE65" stroke-width="2" stroke-linecap="round"/>
</svg>
